<svg version="1.1" viewBox="0.0 0.0 226.77165354330708 226.77165354330708" fill="none" stroke="none" stroke-linecap="square" stroke-miterlimit="10" xmlns:xlink="http://www.w3.org/1999/xlink" xmlns="http://www.w3.org/2000/svg"><clipPath id="p.0"><path d="m0 0l226.77165 0l0 226.77165l-226.77165 0l0 -226.77165z" clip-rule="nonzero"/></clipPath><g clip-path="url(#p.0)"><path fill="#000000" fill-opacity="0.0" d="m0 0l226.77165 0l0 226.77165l-226.77165 0z" fill-rule="evenodd"/><path fill="#ffffff" d="m0 0l226.77165 0l0 226.77165l-226.77165 0z" fill-rule="evenodd"/><path fill="#000000" fill-opacity="0.0" d="m3.910761 3.910761l218.96062 0l0 218.96062l-218.96062 0z" fill-rule="evenodd"/><path stroke="#000000" stroke-width="8.0" stroke-linejoin="round" stroke-linecap="butt" d="m3.910761 3.910761l218.96062 0l0 218.96062l-218.96062 0z" fill-rule="evenodd"/><path fill="#000000" d="m130.67795 203.15047q-40.5625 0 -61.8125 -22.5625q-21.234371 -22.5625 -21.234371 -64.07813q0 -20.640625 6.46875 -36.828125q6.484375 -16.203121 17.765621 -27.359371q11.28125 -11.171875 26.875 -16.921875q15.609375 -5.765627 33.84375 -5.765627q10.5625 0 19.203125 1.5625q8.640625 1.5468769 15.125 3.593752q6.484375 2.046875 10.796875 4.203125q4.328125 2.15625 6.234375 3.359375l-10.796875 30.234371q-7.671875 -4.078125 -17.875 -6.953125q-10.203125 -2.8906212 -23.15625 -2.8906212q-8.640625 0 -16.921875 2.8906212q-8.28125 2.875 -14.640625 9.234375q-6.359375 6.359375 -10.203125 16.4375q-3.84375 10.078125 -3.84375 24.484375q0 11.515625 2.515625 21.484383q2.53125 9.953125 8.171875 17.15625q5.640625 7.203125 14.75 11.40625q9.125 4.1875 22.09375 4.1875q8.15625 0 14.625 -0.953125q6.484375 -0.96875 11.515625 -2.28125q5.046875 -1.3125 8.890625 -3.0q3.84375 -1.6875 6.96875 -3.125l10.3125 30.0q-7.921875 4.8125 -22.328125 8.65625q-14.390625 3.828125 -33.34375 3.828125z" fill-rule="nonzero"/></g></svg>